<svg width="229" height="244" viewBox="0 0 229 244" fill="none" xmlns="http://www.w3.org/2000/svg">
<path d="M57.6211 0H229C229 12.5607 222.929 24.6069 212.123 33.4886C201.317 42.3703 186.661 47.36 171.379 47.36H0C0 34.7993 6.07078 22.7531 16.8768 13.8714C27.6829 4.9897 42.339 0 57.6211 0Z" fill="#00C2FF"/>
<path d="M57.6211 97.95H229C229 110.511 222.929 122.557 212.123 131.439C201.317 140.32 186.661 145.31 171.379 145.31H0C0 132.749 6.07078 120.703 16.8768 111.821C27.6829 102.94 42.339 97.95 57.6211 97.95Z" fill="#00C2FF"/>
<path d="M57.6211 195.9H229C229 208.461 222.929 220.507 212.123 229.389C201.317 238.27 186.661 243.26 171.379 243.26H0C0 230.699 6.07078 218.653 16.8768 209.771C27.6829 200.89 42.339 195.9 57.6211 195.9Z" fill="#00C2FF"/>
</svg>
